# xmcd
#
# Track frame offsets: 
#        150
#        17399
#        30100
#        51022
#        69369
#        85039
#        99667
#        115699
#        129529
#        144620
#        159213
#
# Disc length: 2239 seconds
#
# Revision: 0
# Processed by: cddbd v1.5.2PL0 Copyright (c) Steve Scherf et al.
# Submitted via: ExactAudioCopyFreeDBPlugin 1.0
#
DISCID=7808bd0b
DTITLE=Well Hung Heart - Young Enough To Know It All
DYEAR=2013
DGENRE=Blues
TTITLE0=Bulls#!T
TTITLE1=Devil
TTITLE2=This Is Not Love
TTITLE3=Wedding Song
TTITLE4=Savioritis
TTITLE5=You Got Me
TTITLE6=Oh Girl
TTITLE7=Love Me Baby
TTITLE8=If You Want It
TTITLE9=Die In A Dream
TTITLE10=Get The F Out Of California
EXTD=
EXTT0=
EXTT1=
EXTT2=
EXTT3=
EXTT4=
EXTT5=
EXTT6=
EXTT7=
EXTT8=
EXTT9=
EXTT10=
PLAYORDER=
